<?xml version="1.0" encoding="UTF-8"?>
<svg id="Calque_1" xmlns="http://www.w3.org/2000/svg" version="1.1" viewBox="0 0 25 25">
  <!-- Generator: Adobe Illustrator 30.3.0, SVG Export Plug-In . SVG Version: 2.1.1 Build 94)  -->
  <defs>
    <style>
      .st0 {
        stroke: #000;
        stroke-miterlimit: 10;
        stroke-width: .11px;
      }
    </style>
  </defs>
  <path d="M19.63,10.66v6.67c0,3.72-3.04,6.76-6.76,6.76h-.9c-3.72,0-6.76-3.04-6.76-6.76v-6.67h14.41M20.07,10.22H4.77v7.11c0,3.97,3.23,7.2,7.2,7.2h.9c3.97,0,7.2-3.23,7.2-7.2v-7.11h0Z"/>
  <path d="M13.73,1.09c3.24,0,5.89,2.65,5.89,5.89v2.6c0,.27-.22.49-.49.49h-6.33v-.81c.44-.14.77-.56.77-1.05V3.92c0-.49-.32-.91-.77-1.05v-1.3c0-.27.22-.49.49-.49h.44M13.73.64h-.44c-.51,0-.93.42-.93.93v1.62l.31.1c.27.09.46.34.46.63v4.29c0,.28-.19.54-.46.63l-.31.1v1.57h6.78c.51,0,.93-.42.93-.93v-2.6c0-3.49-2.84-6.33-6.33-6.33h0Z"/>
  <path d="M11.63,1.09c.32,0,.59.26.59.59v1.18c-.48.12-.85.55-.85,1.07v4.29c0,.52.36.95.85,1.07v.79h-6.41c-.32,0-.59-.26-.59-.59v-2.41c0-3.3,2.7-5.99,5.99-5.99h.42M11.63.64h-.42c-3.55,0-6.43,2.89-6.43,6.43v2.41c0,.57.46,1.03,1.03,1.03h6.86v-1.58l-.34-.08c-.29-.07-.51-.34-.51-.64V3.92c0-.3.21-.57.51-.64l.34-.08v-1.52c0-.57-.46-1.03-1.03-1.03h0Z"/>
  <path class="st0" d="M12.81,3.35c-.1-.06-.21-.09-.34-.09-.09,0-.18.02-.26.05-.24.1-.4.33-.4.61v4.29c0,.27.17.51.4.61.08.03.16.05.26.05.12,0,.24-.03.34-.09.19-.11.32-.33.32-.57V3.92c0-.24-.13-.45-.32-.57Z"/>
</svg>