<?xml version="1.0" encoding="UTF-8"?>
<svg id="Calque_1" xmlns="http://www.w3.org/2000/svg" version="1.1" viewBox="0 0 25 25">
  <!-- Generator: Adobe Illustrator 30.3.0, SVG Export Plug-In . SVG Version: 2.1.1 Build 94)  -->
  <defs>
    <style>
      .st0 {
        fill: none;
        stroke: #000;
        stroke-miterlimit: 10;
        stroke-width: .11px;
      }
    </style>
  </defs>
  <path d="M19.68,10.68v6.74c0,3.75-3.07,6.82-6.82,6.82h-.91c-3.75,0-6.82-3.07-6.82-6.82v-6.74h14.56M20.13,10.23H4.67v7.19c0,4.01,3.26,7.27,7.27,7.27h.91c4.01,0,7.27-3.26,7.27-7.27v-7.19h0Z"/>
  <path d="M13.73,1c3.27,0,5.95,2.68,5.95,5.95v2.63c0,.27-.22.49-.49.49h-6.4v-.82c.45-.14.77-.57.77-1.06V3.87c0-.49-.33-.92-.77-1.06v-1.31c0-.27.22-.49.49-.49h.44M13.73.56h-.44c-.52,0-.94.42-.94.94v1.64l.31.1c.27.09.46.35.46.63v4.34c0,.29-.19.55-.46.63l-.31.1v1.59h6.84c.52,0,.94-.42.94-.94v-2.63c0-3.53-2.87-6.4-6.4-6.4h0Z"/>
  <g>
    <path d="M5.71,10.3c-.45,0-.82-.37-.82-.82v-2.43C4.89,3.6,7.71.78,11.17.78h.43c.45,0,.82.37.82.82v1.36l-.17.04c-.4.09-.68.46-.68.86v4.34c0,.41.29.77.68.86l.17.04v1.19h-6.7Z"/>
    <path d="M11.6,1c.33,0,.59.27.59.59v1.19c-.49.12-.85.56-.85,1.08v4.34c0,.52.37.96.85,1.08v.79h-6.48c-.33,0-.59-.27-.59-.59v-2.43c0-3.33,2.72-6.05,6.05-6.05h.43M11.6.56h-.43c-3.58,0-6.5,2.92-6.5,6.5v2.43c0,.57.47,1.04,1.04,1.04h6.93v-1.6l-.34-.08c-.3-.07-.51-.34-.51-.65V3.87c0-.3.22-.57.51-.65l.34-.08v-1.54c0-.57-.47-1.04-1.04-1.04h0Z"/>
  </g>
  <path class="st0" d="M12.79,3.3c-.1-.06-.21-.09-.34-.09-.09,0-.18.02-.26.05-.24.1-.41.34-.41.61v4.34c0,.28.17.51.41.61.08.03.17.05.26.05.12,0,.24-.03.34-.09.2-.12.33-.33.33-.57V3.87c0-.24-.13-.46-.33-.57Z"/>
</svg>