<?xml version="1.0" encoding="UTF-8"?>
<svg id="Calque_1" xmlns="http://www.w3.org/2000/svg" version="1.1" viewBox="0 0 25 25">
  <!-- Generator: Adobe Illustrator 30.3.0, SVG Export Plug-In . SVG Version: 2.1.1 Build 94)  -->
  <defs>
    <style>
      .st0 {
        fill: none;
        stroke: #000;
        stroke-miterlimit: 10;
        stroke-width: 1.1px;
      }
    </style>
  </defs>
  <rect class="st0" x=".86" y="1.02" width="23.13" height="23.13" rx="4.51" ry="4.51"/>
  <rect class="st0" x="3.84" y="3.1" width="17.08" height="17.08" rx="2.36" ry="2.36"/>
  <path d="M10.17,8.06h1.94c1.35,0,2.35.28,2.98.84.63.56.95,1.44.95,2.64s-.32,2.09-.95,2.65c-.64.56-1.63.85-2.97.85h-1.94v-6.98ZM11.12,8.84v5.43h1.14c.96,0,1.67-.22,2.12-.65.45-.44.67-1.13.67-2.07s-.22-1.62-.67-2.06c-.45-.43-1.15-.65-2.12-.65h-1.14Z"/>
</svg>