<?xml version="1.0" encoding="UTF-8"?>
<svg id="Calque_1" xmlns="http://www.w3.org/2000/svg" version="1.1" viewBox="0 0 25 25">
  <!-- Generator: Adobe Illustrator 30.3.0, SVG Export Plug-In . SVG Version: 2.1.1 Build 94)  -->
  <defs>
    <style>
      .st0 {
        fill: none;
        stroke: #000;
        stroke-miterlimit: 10;
        stroke-width: 1.1px;
      }
    </style>
  </defs>
  <rect class="st0" x=".86" y="1.02" width="23.13" height="23.13" rx="4.51" ry="4.51"/>
  <rect class="st0" x="3.84" y="3.1" width="17.08" height="17.08" rx="2.36" ry="2.36"/>
  <path d="M13.49,14.76l1.24,1.36h-1.14l-1.03-1.12c-.1,0-.18.01-.24.01-.05,0-.11,0-.16,0-.98,0-1.77-.33-2.35-.98-.59-.66-.88-1.53-.88-2.64s.29-1.98.88-2.64c.59-.66,1.37-.98,2.35-.98s1.76.33,2.35.98c.59.66.88,1.54.88,2.64,0,.81-.16,1.5-.49,2.08-.33.58-.8,1-1.41,1.28ZM12.16,8.54c-.69,0-1.23.26-1.63.77-.4.51-.61,1.21-.61,2.09s.2,1.57.61,2.09c.4.51.95.77,1.63.77s1.23-.26,1.63-.77c.4-.51.6-1.21.6-2.09s-.2-1.58-.6-2.09c-.4-.51-.94-.77-1.63-.77Z"/>
</svg>