<?xml version="1.0" encoding="UTF-8"?>
<svg id="Calque_1" xmlns="http://www.w3.org/2000/svg" version="1.1" viewBox="0 0 25 25">
  <!-- Generator: Adobe Illustrator 30.3.0, SVG Export Plug-In . SVG Version: 2.1.1 Build 94)  -->
  <defs>
    <style>
      .st0 {
        fill: none;
        stroke: #000;
        stroke-miterlimit: 10;
        stroke-width: 1.1px;
      }
    </style>
  </defs>
  <rect class="st0" x=".86" y="1.02" width="23.13" height="23.13" rx="4.51" ry="4.51"/>
  <rect class="st0" x="3.84" y="3.1" width="17.08" height="17.08" rx="2.36" ry="2.36"/>
  <path d="M14.3,8.15v.92c-.36-.17-.7-.3-1.01-.38s-.63-.13-.92-.13c-.51,0-.91.1-1.19.3-.28.2-.42.48-.42.85,0,.31.09.54.28.7.19.16.54.28,1.05.38l.57.12c.7.13,1.22.37,1.56.71.34.34.5.79.5,1.36,0,.68-.23,1.19-.68,1.54-.45.35-1.12.52-1.99.52-.33,0-.68-.04-1.05-.11-.37-.07-.76-.19-1.16-.33v-.97c.38.22.76.38,1.13.49.37.11.73.16,1.08.16.54,0,.96-.11,1.25-.32.29-.21.44-.51.44-.91,0-.34-.11-.61-.32-.8-.21-.19-.56-.34-1.04-.43l-.58-.11c-.7-.14-1.21-.36-1.53-.66-.31-.3-.47-.72-.47-1.25,0-.62.22-1.1.65-1.46s1.03-.53,1.8-.53c.33,0,.66.03,1,.09.34.06.69.15,1.04.27Z"/>
</svg>