<?xml version="1.0" encoding="UTF-8"?>
<svg id="Calque_1" xmlns="http://www.w3.org/2000/svg" version="1.1" viewBox="0 0 30 30">
  <!-- Generator: Adobe Illustrator 30.3.0, SVG Export Plug-In . SVG Version: 2.1.1 Build 94)  -->
  <defs>
    <style>
      .st0 {
        fill: none;
        stroke: #000;
        stroke-miterlimit: 10;
        stroke-width: .4px;
      }
    </style>
  </defs>
  <g>
    <rect class="st0" x="10.75" y="15.54" width="8.5" height="8.5" rx="1.66" ry="1.66"/>
    <rect class="st0" x="11.85" y="16.3" width="6.27" height="6.27" rx=".87" ry=".87"/>
  </g>
  <g>
    <rect class="st0" x="20.5" y="15.54" width="8.5" height="8.5" rx="1.66" ry="1.66"/>
    <rect class="st0" x="21.6" y="16.3" width="6.27" height="6.27" rx=".87" ry=".87"/>
  </g>
  <g>
    <rect class="st0" x="10.75" y="5.97" width="8.5" height="8.5" rx="1.66" ry="1.66"/>
    <rect class="st0" x="11.85" y="6.73" width="6.27" height="6.27" rx=".87" ry=".87"/>
  </g>
  <g>
    <rect class="st0" x="1" y="15.52" width="8.5" height="8.5" rx="1.66" ry="1.66"/>
    <rect class="st0" x="2.1" y="16.29" width="6.27" height="6.27" rx=".87" ry=".87"/>
  </g>
  <path d="M15.03,9.19l1.07,1.35h-2.19l1.12-1.35M15.03,8.61l-.29.35-1.12,1.35-.5.6h3.74l-.47-.6-1.07-1.35-.28-.35h0Z"/>
  <path d="M16.1,19.11h0M16.1,19.11l-1.12,1.35-1.07-1.35h2.19M16.88,18.74h-3.74l.47.6,1.07,1.35.28.35.29-.35,1.12-1.35.5-.6h0ZM16.1,18.74h0,0ZM16.1,19.48h0,0Z"/>
  <path d="M24.42,18.34l1.35,1.12-1.35,1.07v-2.19M24.05,17.56v3.74l.6-.47,1.35-1.07.35-.28-.35-.29-1.35-1.12-.6-.5h0Z"/>
  <path d="M5.7,18.33v2.19l-1.35-1.12,1.35-1.07M6.07,17.57l-.6.47-1.35,1.07-.35.28.35.29,1.35,1.12.6.5v-3.74h0Z"/>
</svg>