<?xml version="1.0" encoding="UTF-8"?>
<svg id="Calque_1" xmlns="http://www.w3.org/2000/svg" version="1.1" viewBox="0 0 30 30">
  <!-- Generator: Adobe Illustrator 30.3.0, SVG Export Plug-In . SVG Version: 2.1.1 Build 94)  -->
  <defs>
    <style>
      .st0 {
        stroke-width: .33px;
      }

      .st0, .st1 {
        fill: none;
        stroke: #000;
        stroke-miterlimit: 10;
      }

      .st1 {
        stroke-width: .33px;
      }
    </style>
  </defs>
  <g>
    <rect class="st0" x="10.74" y="6.01" width="8.4" height="8.4" rx="1.64" ry="1.64"/>
    <rect class="st0" x="11.83" y="6.77" width="6.2" height="6.2" rx=".86" ry=".86"/>
    <path d="M13.91,8.56h1.99v.26l-1.6,1.99h1.64v.29h-2.07v-.26l1.6-1.99h-1.56v-.29Z"/>
  </g>
  <g>
    <rect class="st1" x="10.76" y="15.5" width="8.47" height="8.47" rx="1.65" ry="1.65"/>
    <rect class="st1" x="11.86" y="16.26" width="6.26" height="6.26" rx=".87" ry=".87"/>
    <path d="M15.69,18.11v.34c-.13-.06-.26-.11-.37-.14s-.23-.05-.34-.05c-.19,0-.33.04-.44.11-.1.07-.15.18-.15.31,0,.11.03.2.1.26.07.06.2.1.39.14l.21.04c.26.05.45.14.57.26.12.12.18.29.18.5,0,.25-.08.44-.25.56-.17.13-.41.19-.73.19-.12,0-.25-.01-.39-.04-.14-.03-.28-.07-.42-.12v-.36c.14.08.28.14.41.18.13.04.27.06.4.06.2,0,.35-.04.46-.12.11-.08.16-.19.16-.33,0-.13-.04-.22-.12-.29-.08-.07-.2-.12-.38-.16l-.21-.04c-.26-.05-.44-.13-.56-.24-.12-.11-.17-.26-.17-.46,0-.23.08-.4.24-.53s.38-.2.66-.2c.12,0,.24.01.37.03.12.02.25.05.38.1Z"/>
  </g>
  <g>
    <rect class="st1" x="1" y="15.51" width="8.47" height="8.47" rx="1.65" ry="1.65"/>
    <rect class="st1" x="2.09" y="16.28" width="6.26" height="6.26" rx=".87" ry=".87"/>
    <path d="M5.63,20.55l.46.5h-.42l-.38-.41s-.07,0-.09,0c-.02,0-.04,0-.06,0-.36,0-.65-.12-.86-.36-.22-.24-.32-.56-.32-.97s.11-.73.32-.97c.22-.24.5-.36.86-.36s.65.12.86.36c.21.24.32.56.32.97,0,.3-.06.55-.18.76-.12.21-.29.37-.52.47ZM5.14,18.27c-.25,0-.45.09-.6.28-.15.19-.22.44-.22.77s.07.58.22.76c.15.19.35.28.6.28s.45-.09.6-.28c.15-.19.22-.44.22-.76s-.07-.58-.22-.77c-.15-.19-.35-.28-.6-.28Z"/>
  </g>
  <g>
    <rect class="st1" x="20.53" y="15.5" width="8.47" height="8.47" rx="1.65" ry="1.65"/>
    <rect class="st1" x="21.62" y="16.26" width="6.26" height="6.26" rx=".87" ry=".87"/>
    <path d="M23.94,18.08h.71c.5,0,.86.1,1.09.31.23.21.35.53.35.97s-.12.76-.35.97c-.23.21-.6.31-1.09.31h-.71v-2.56ZM24.29,18.36v1.99h.42c.35,0,.61-.08.78-.24.16-.16.25-.41.25-.76s-.08-.59-.25-.75c-.16-.16-.42-.24-.78-.24h-.42Z"/>
  </g>
</svg>